Coordinates
version=1
nRows=43
nColumns=12
inDegrees=yes

Units are S.I. units (second, meters, Newtons, ...)
Angles are in degrees

endheader
time	SC_y	SC_z	SC_x	AC_y	AC_z	AC_x	GH_y	GH_z	GH_yy	EL_x	PS_y
       0.0               -32.8          11.59          7.886          48.06         -8.732         -4.325          178.4          72.45         -171.6          97.55          124.7
   0.03519              -32.81          11.59          7.886          48.05         -8.731         -4.324          178.3          72.45         -171.6          97.53          124.7
   0.07039              -32.81          11.59          7.886          48.05         -8.731         -4.322          178.3          72.45         -171.6          97.52          124.7
    0.1056              -32.81          11.59          7.886          48.05         -8.731         -4.321          178.2          72.45         -171.6           97.5          124.7
    0.1408              -32.82          11.59          7.887          48.05          -8.73         -4.319          178.2          72.45         -171.6          97.49          124.7
     0.176              -32.82          11.59          7.887          48.05          -8.73         -4.317          178.1          72.45         -171.5          97.47          124.7
    0.2112              -32.83          11.59          7.887          48.05         -8.729         -4.315          178.1          72.45         -171.5          97.45          124.7
    0.2464              -32.83          11.59          7.887          48.05         -8.729         -4.313          178.0          72.45         -171.5          97.43          124.7
    0.2816              -32.84           11.6          7.887          48.05         -8.728          -4.31          178.0          72.46         -171.5          97.41          124.7
    0.3167              -32.84           11.6          7.888          48.05         -8.728         -4.308          177.9          72.46         -171.4          97.39          124.7
    0.3519              -32.85           11.6          7.888          48.04         -8.727         -4.305          177.9          72.46         -171.4          97.37          124.7
    0.3871              -32.85           11.6          7.888          48.04         -8.727         -4.302          177.8          72.46         -171.3          97.34          124.7
    0.4223              -32.86           11.6          7.889          48.04         -8.726         -4.299          177.7          72.46         -171.3          97.32          124.7
    0.4575              -32.87           11.6          7.889          48.04         -8.725         -4.295          177.6          72.46         -171.3          97.29          124.7
    0.4927              -32.88          11.61          7.889          48.04         -8.725         -4.292          177.5          72.46         -171.2          97.25          124.7
    0.5279              -32.88          11.61           7.89          48.04         -8.724         -4.288          177.5          72.46         -171.2          97.22          124.7
    0.5631              -32.89          11.61           7.89          48.03         -8.723         -4.283          177.3          72.46         -171.1          97.18          124.7
    0.5983               -32.9          11.61          7.891          48.03         -8.722         -4.278          177.2          72.46         -171.1          97.14          124.7
    0.6335              -32.92          11.62          7.891          48.03         -8.721         -4.273          177.1          72.46         -171.0          97.09          124.7
    0.6687              -32.93          11.62          7.892          48.02          -8.72         -4.268          177.0          72.46         -170.9          97.05          124.6
    0.7039              -32.94          11.62          7.893          48.02         -8.718         -4.261          176.8          72.46         -170.8          96.99          124.6
    0.7391              -32.96          11.63          7.893          48.02         -8.717         -4.254          176.7          72.46         -170.8          96.93          124.6
    0.7743              -32.97          11.63          7.894          48.01         -8.715         -4.247          176.5          72.46         -170.7          96.87          124.6
    0.8095              -32.99          11.63          7.895          48.01         -8.713         -4.238          176.3          72.47         -170.5          96.79          124.6
    0.8447              -33.01          11.64          7.896           48.0         -8.711         -4.229          176.1          72.47         -170.4          96.71          124.6
    0.8799              -33.03          11.64          7.897           48.0         -8.709         -4.218          175.8          72.47         -170.3          96.62          124.6
     0.915              -33.06          11.65          7.898          47.99         -8.707         -4.207          175.5          72.47         -170.2          96.52          124.5
    0.9502              -33.08          11.66            7.9          47.99         -8.704         -4.194          175.2          72.47         -170.0          96.41          124.5
    0.9854              -33.12          11.67          7.901          47.98         -8.701         -4.179          174.9          72.47         -169.8          96.28          124.5
     1.021              -33.15          11.67          7.903          47.97         -8.697         -4.162          174.5          72.48         -169.6          96.13          124.5
     1.056              -33.19          11.69          7.905          47.96         -8.693         -4.142          174.0          72.48         -169.3          95.96          124.4
     1.091              -33.24           11.7          7.907          47.95         -8.689          -4.12          173.5          72.48         -169.1          95.77          124.4
     1.126              -33.29          11.71           7.91          47.93         -8.683         -4.095          172.9          72.49         -168.7          95.55          124.4
     1.161              -33.36          11.73          7.913          47.92         -8.677         -4.065          172.2          72.49         -168.4          95.29          124.3
     1.197              -33.43          11.74          7.917           47.9          -8.67          -4.03          171.3           72.5         -167.9          94.99          124.3
     1.232              -33.52          11.77          7.921          47.88         -8.661         -3.989          170.4           72.5         -167.4          94.64          124.2
     1.267              -33.62          11.79          7.926          47.85         -8.651          -3.94          169.2          72.51         -166.8          94.22          124.1
     1.302              -33.74          11.82          7.933          47.82         -8.639         -3.882          167.8          72.52         -166.1          93.71          124.0
     1.337              -33.89          11.86           7.94          47.78         -8.624         -3.811          166.2          72.53         -165.2           93.1          123.9
     1.373              -34.08          11.91          7.949          47.74         -8.606         -3.725          164.1          72.54         -164.1          92.36          123.8
     1.408               -34.3          11.96           7.96          47.68         -8.584         -3.618          161.6          72.55         -162.8          91.44          123.6
     1.443              -34.59          12.03          7.974          47.61         -8.556         -3.485          158.4          72.57         -161.1          90.29          123.4
     1.478              -34.94          12.12          7.992          47.52         -8.521         -3.318          154.5           72.6         -159.0          88.84          123.1
